<?xml version="1.0" standalone="no"?>
<!DOCTYPE svg PUBLIC "-//W3C//DTD SVG 20010904//EN"
 "http://www.w3.org/TR/2001/REC-SVG-20010904/DTD/svg10.dtd">
<svg version="1.0" xmlns="http://www.w3.org/2000/svg"
 width="254.000000pt" height="254.000000pt" viewBox="0 0 254.000000 254.000000"
 preserveAspectRatio="xMidYMid meet">
<metadata>
Created by potrace 1.11, written by Peter Selinger 2001-2013
</metadata>
<g transform="translate(0.000000,254.000000) scale(0.100000,-0.100000)"
fill="#000000" stroke="none">
<path d="M339 2517 c-73 -49 -69 12 -69 -991 l0 -898 21 -38 c19 -33 62 -62
308 -209 157 -93 291 -175 298 -181 7 -5 14 -10 17 -10 3 0 74 -42 158 -92
219 -133 175 -141 568 101 173 106 331 204 350 216 19 13 76 48 125 78 50 31
104 70 120 87 l30 31 0 924 0 925 -38 37 -37 38 -909 2 -908 3 -34 -23z m1647
-977 l-1 -715 -137 -1 -138 -1 -1 36 c0 20 -1 285 0 589 l0 552 -32 1 c-119 3
-239 1 -245 -6 -4 -3 -8 -266 -8 -583 -1 -317 -2 -580 -3 -583 0 -4 -66 -6
-146 -6 l-145 1 -2 590 -3 590 -105 -2 c-58 0 -121 -1 -140 -1 l-35 -1 2 -589
1 -588 -146 1 -147 1 -1 710 c-1 391 0 712 2 715 1 3 324 6 717 6 l714 0 -1
-716z"/>
</g>
</svg>
